<svg width="201" height="154" viewBox="0 0 201 154" fill="none" xmlns="http://www.w3.org/2000/svg">
<rect width="12.7869" height="12.7869" fill="#1E167A" fill-opacity="0.03"/>
<rect x="70.3281" width="12.7869" height="12.7869" fill="#1E167A" fill-opacity="0.03"/>
<rect x="140.656" width="12.7869" height="12.7869" fill="#1E167A" fill-opacity="0.03"/>
<rect x="23.4429" width="12.7869" height="12.7869" fill="#1E167A" fill-opacity="0.03"/>
<rect x="93.7705" width="12.7869" height="12.7869" fill="#1E167A" fill-opacity="0.03"/>
<rect x="164.099" width="12.7869" height="12.7869" fill="#1E167A" fill-opacity="0.03"/>
<rect x="46.8853" width="12.7869" height="12.7869" fill="#1E167A" fill-opacity="0.03"/>
<rect x="117.213" width="12.7869" height="12.7869" fill="#1E167A" fill-opacity="0.03"/>
<rect x="187.541" width="12.7869" height="12.7869" fill="#1E167A" fill-opacity="0.03"/>
<rect y="23.4426" width="12.7869" height="12.7869" fill="#1E167A" fill-opacity="0.03"/>
<rect x="70.3281" y="23.4426" width="12.7869" height="12.7869" fill="#1E167A" fill-opacity="0.03"/>
<rect x="140.656" y="23.4426" width="12.7869" height="12.7869" fill="#1E167A" fill-opacity="0.03"/>
<rect x="23.4429" y="23.4426" width="12.7869" height="12.7869" fill="#1E167A" fill-opacity="0.03"/>
<rect x="93.7705" y="23.4426" width="12.7869" height="12.7869" fill="#1E167A" fill-opacity="0.03"/>
<rect x="164.099" y="23.4426" width="12.7869" height="12.7869" fill="#1E167A" fill-opacity="0.03"/>
<rect x="46.8853" y="23.4426" width="12.7869" height="12.7869" fill="#1E167A" fill-opacity="0.03"/>
<rect x="117.213" y="23.4426" width="12.7869" height="12.7869" fill="#1E167A" fill-opacity="0.03"/>
<rect x="187.541" y="23.4426" width="12.7869" height="12.7869" fill="#1E167A" fill-opacity="0.03"/>
<rect y="46.8853" width="12.7869" height="12.7869" fill="#1E167A" fill-opacity="0.03"/>
<rect x="70.3281" y="46.8853" width="12.7869" height="12.7869" fill="#1E167A" fill-opacity="0.03"/>
<rect x="140.656" y="46.8853" width="12.7869" height="12.7869" fill="#1E167A" fill-opacity="0.03"/>
<rect x="23.4429" y="46.8853" width="12.7869" height="12.7869" fill="#1E167A" fill-opacity="0.03"/>
<rect x="93.7705" y="46.8853" width="12.7869" height="12.7869" fill="#1E167A" fill-opacity="0.03"/>
<rect x="164.099" y="46.8853" width="12.7869" height="12.7869" fill="#1E167A" fill-opacity="0.03"/>
<rect x="46.8853" y="46.8853" width="12.7869" height="12.7869" fill="#1E167A" fill-opacity="0.03"/>
<rect x="117.213" y="46.8853" width="12.7869" height="12.7869" fill="#1E167A" fill-opacity="0.03"/>
<rect x="187.541" y="46.8853" width="12.7869" height="12.7869" fill="#1E167A" fill-opacity="0.03"/>
<rect y="70.3279" width="12.7869" height="12.7869" fill="#1E167A" fill-opacity="0.03"/>
<rect x="70.3281" y="70.3279" width="12.7869" height="12.7869" fill="#1E167A" fill-opacity="0.03"/>
<rect x="140.656" y="70.3279" width="12.7869" height="12.7869" fill="#1E167A" fill-opacity="0.03"/>
<rect x="23.4429" y="70.3279" width="12.7869" height="12.7869" fill="#1E167A" fill-opacity="0.03"/>
<rect x="93.7705" y="70.3279" width="12.7869" height="12.7869" fill="#1E167A" fill-opacity="0.03"/>
<rect x="164.099" y="70.3279" width="12.7869" height="12.7869" fill="#1E167A" fill-opacity="0.03"/>
<rect x="46.8853" y="70.3279" width="12.7869" height="12.7869" fill="#1E167A" fill-opacity="0.03"/>
<rect x="117.213" y="70.3279" width="12.7869" height="12.7869" fill="#1E167A" fill-opacity="0.03"/>
<rect x="187.541" y="70.3279" width="12.7869" height="12.7869" fill="#1E167A" fill-opacity="0.03"/>
<rect y="93.7705" width="12.7869" height="12.7869" fill="#1E167A" fill-opacity="0.03"/>
<rect x="70.3281" y="93.7705" width="12.7869" height="12.7869" fill="#1E167A" fill-opacity="0.03"/>
<rect x="140.656" y="93.7705" width="12.7869" height="12.7869" fill="#1E167A" fill-opacity="0.03"/>
<rect x="23.4429" y="93.7705" width="12.7869" height="12.7869" fill="#1E167A" fill-opacity="0.03"/>
<rect x="93.7705" y="93.7705" width="12.7869" height="12.7869" fill="#1E167A" fill-opacity="0.03"/>
<rect x="164.099" y="93.7705" width="12.7869" height="12.7869" fill="#1E167A" fill-opacity="0.03"/>
<rect x="46.8853" y="93.7705" width="12.7869" height="12.7869" fill="#1E167A" fill-opacity="0.03"/>
<rect x="117.213" y="93.7705" width="12.7869" height="12.7869" fill="#1E167A" fill-opacity="0.03"/>
<rect x="187.541" y="93.7705" width="12.7869" height="12.7869" fill="#1E167A" fill-opacity="0.03"/>
<rect y="117.213" width="12.7869" height="12.7869" fill="#1E167A" fill-opacity="0.03"/>
<rect x="70.3281" y="117.213" width="12.7869" height="12.7869" fill="#1E167A" fill-opacity="0.03"/>
<rect x="140.656" y="117.213" width="12.7869" height="12.7869" fill="#1E167A" fill-opacity="0.03"/>
<rect x="23.4429" y="117.213" width="12.7869" height="12.7869" fill="#1E167A" fill-opacity="0.03"/>
<rect x="93.7705" y="117.213" width="12.7869" height="12.7869" fill="#1E167A" fill-opacity="0.03"/>
<rect x="164.099" y="117.213" width="12.7869" height="12.7869" fill="#1E167A" fill-opacity="0.03"/>
<rect x="46.8853" y="117.213" width="12.7869" height="12.7869" fill="#1E167A" fill-opacity="0.03"/>
<rect x="117.213" y="117.213" width="12.7869" height="12.7869" fill="#1E167A" fill-opacity="0.03"/>
<rect x="187.541" y="117.213" width="12.7869" height="12.7869" fill="#1E167A" fill-opacity="0.03"/>
<rect y="141" width="12.7869" height="12.7869" fill="#1E167A" fill-opacity="0.03"/>
<rect x="70.3281" y="141" width="12.7869" height="12.7869" fill="#1E167A" fill-opacity="0.03"/>
<rect x="140.656" y="141" width="12.7869" height="12.7869" fill="#1E167A" fill-opacity="0.03"/>
<rect x="23.4429" y="141" width="12.7869" height="12.7869" fill="#1E167A" fill-opacity="0.03"/>
<rect x="93.7705" y="141" width="12.7869" height="12.7869" fill="#1E167A" fill-opacity="0.03"/>
<rect x="164.099" y="141" width="12.7869" height="12.7869" fill="#1E167A" fill-opacity="0.03"/>
<rect x="46.8853" y="141" width="12.7869" height="12.7869" fill="#1E167A" fill-opacity="0.03"/>
<rect x="117.213" y="141" width="12.7869" height="12.7869" fill="#1E167A" fill-opacity="0.03"/>
<rect x="187.541" y="141" width="12.7869" height="12.7869" fill="#1E167A" fill-opacity="0.03"/>
</svg>
