<svg width="90" height="81" viewBox="0 0 90 81" fill="none" xmlns="http://www.w3.org/2000/svg">
<path fill-rule="evenodd" clip-rule="evenodd" d="M88.0651 3.86946L36.9882 3.86947C35.9197 3.86947 35.0535 3.00326 35.0535 1.93474C35.0535 0.866214 35.9197 4.61276e-06 36.9882 4.42825e-06L88.0651 0C89.1336 -1.8451e-07 89.9998 0.866209 89.9998 1.93473C89.9998 3.00325 89.1336 3.86946 88.0651 3.86946ZM0.615234 1.93474C0.615234 0.866214 1.48144 4.61276e-06 2.54997 4.61276e-06H27.7015C28.77 4.61276e-06 29.6362 0.866214 29.6362 1.93474C29.6362 3.00326 28.77 3.86947 27.7015 3.86947H2.54997C1.48144 3.86947 0.615234 3.00326 0.615234 1.93474ZM0.615234 13.1562C0.615234 12.0877 1.48144 11.2214 2.54997 11.2214H40.4707C41.5392 11.2214 42.4054 12.0877 42.4054 13.1562C42.4054 14.2247 41.5392 15.0909 40.4707 15.0909H2.54997C1.48144 15.0909 0.615234 14.2247 0.615234 13.1562ZM48.2096 13.1562C48.2096 12.0877 49.0758 11.2214 50.1444 11.2214H88.0651C89.1336 11.2214 89.9998 12.0877 89.9998 13.1562C89.9998 14.2247 89.1336 15.0909 88.0651 15.0909H50.1444C49.0758 15.0909 48.2096 14.2247 48.2096 13.1562ZM0.615234 24.3776C0.615234 23.3091 1.48144 22.4429 2.54997 22.4429H65.2353C66.3038 22.4429 67.17 23.3091 67.17 24.3776C67.17 25.4461 66.3038 26.3124 65.2353 26.3124H2.54997C1.48144 26.3124 0.615234 25.4461 0.615234 24.3776ZM72.9742 24.3776C72.9742 23.3091 73.8404 22.4429 74.9089 22.4429L88.0651 22.4429C89.1336 22.4429 89.9998 23.3091 89.9998 24.3776C89.9998 25.4462 89.1336 26.3124 88.0651 26.3124H74.9089C73.8404 26.3124 72.9742 25.4461 72.9742 24.3776ZM0.615234 37.1469C0.615234 36.0783 1.48144 35.2121 2.54997 35.2121H50.5313C51.5998 35.2121 52.466 36.0783 52.466 37.1469C52.466 38.2154 51.5998 39.0816 50.5313 39.0816H2.54997C1.48144 39.0816 0.615234 38.2154 0.615234 37.1469ZM88.0651 39.0816H60.9789C59.9103 39.0816 59.0441 38.2154 59.0441 37.1469C59.0441 36.0783 59.9103 35.2121 60.9789 35.2121L88.0651 35.2121C89.1336 35.2121 89.9998 36.0783 89.9998 37.1469C89.9998 38.2154 89.1336 39.0816 88.0651 39.0816ZM0.615234 51.4639C0.615234 50.3953 1.48144 49.5291 2.54997 49.5291H71.0395C72.108 49.5291 72.9742 50.3953 72.9742 51.4639C72.9742 52.5324 72.108 53.3986 71.0395 53.3986H2.54997C1.48144 53.3986 0.615234 52.5324 0.615234 51.4639ZM78.0045 51.4639C78.0045 50.3954 78.8707 49.5291 79.9392 49.5291H88.0651C89.1336 49.5291 89.9998 50.3954 89.9998 51.4639C89.9998 52.5324 89.1336 53.3986 88.0651 53.3986H79.9392C78.8707 53.3986 78.0045 52.5324 78.0045 51.4639ZM0.615234 65.7809C0.615234 64.7124 1.48144 63.8462 2.54997 63.8462H79.5523C80.6208 63.8462 81.487 64.7124 81.487 65.7809C81.487 66.8494 80.6208 67.7156 79.5523 67.7156H2.54997C1.48144 67.7156 0.615234 66.8494 0.615234 65.7809ZM84.1957 65.7809C84.1957 64.7124 85.0619 63.8462 86.1304 63.8462H88.0651C89.1336 63.8462 89.9998 64.7124 89.9998 65.7809C89.9998 66.8494 89.1336 67.7156 88.0651 67.7156H86.1304C85.0619 67.7156 84.1957 66.8494 84.1957 65.7809ZM0.615234 78.5501C0.615234 77.4816 1.48144 76.6154 2.54997 76.6154H19.5756C20.6441 76.6154 21.5103 77.4816 21.5103 78.5501C21.5103 79.6186 20.6441 80.4848 19.5756 80.4848H2.54997C1.48144 80.4848 0.615234 79.6186 0.615234 78.5501ZM88.0651 80.4848L28.4754 80.4849C27.4069 80.4849 26.5406 79.6186 26.5406 78.5501C26.5406 77.4816 27.4069 76.6154 28.4754 76.6154H88.0651C89.1336 76.6154 89.9998 77.4816 89.9998 78.5501C89.9998 79.6186 89.1336 80.4848 88.0651 80.4848Z" fill="#1E167A" fill-opacity="0.2"/>
<path fill-rule="evenodd" clip-rule="evenodd" d="M51.5572 32.7383C49.9219 35.5043 48.9835 38.7311 48.9835 42.1771C48.9835 52.4349 57.2991 60.7505 67.5569 60.7505C77.8147 60.7505 86.1303 52.4349 86.1303 42.1771C86.1303 31.9193 77.8147 23.6037 67.5569 23.6037C64.513 23.6037 61.6402 24.3359 59.1049 25.6338C57.6792 24.6263 56.1426 23.778 54.5221 23.1067C51.6621 21.9221 48.5967 21.3123 45.501 21.3123C42.4053 21.3123 39.3399 21.9221 36.4798 23.1067C34.7973 23.8037 33.2052 24.6915 31.7338 25.7501C29.1444 24.3797 26.192 23.6037 23.0583 23.6037C12.8005 23.6037 4.48486 31.9193 4.48486 42.1771C4.48486 52.4349 12.8005 60.7505 23.0583 60.7505C33.3161 60.7505 41.6317 52.4349 41.6317 42.1771C41.6317 38.7944 40.7274 35.6229 39.1474 32.8912C39.5243 32.6915 39.9111 32.5093 40.3066 32.3455C41.9534 31.6634 43.7185 31.3123 45.501 31.3123C47.2834 31.3123 49.0485 31.6634 50.6953 32.3455C50.9875 32.4666 51.2749 32.5976 51.5572 32.7383ZM37.3751 42.1771C37.3751 50.0841 30.9651 56.4941 23.0581 56.4941C15.151 56.4941 8.74105 50.0841 8.74105 42.1771C8.74105 34.27 15.151 27.8601 23.0581 27.8601C30.9651 27.8601 37.3751 34.27 37.3751 42.1771ZM67.5568 56.4941C75.4639 56.4941 81.8738 50.0841 81.8738 42.1771C81.8738 34.27 75.4639 27.8601 67.5568 27.8601C59.6497 27.8601 53.2398 34.27 53.2398 42.1771C53.2398 50.0841 59.6497 56.4941 67.5568 56.4941Z" fill="url(#paint0_linear)"/>
<defs>
<linearGradient id="paint0_linear" x1="-1.94509" y1="71.0796" x2="94.4498" y2="54.7386" gradientUnits="userSpaceOnUse">
<stop stop-color="#1400FF"/>
<stop offset="1" stop-color="#E75B10"/>
</linearGradient>
</defs>
</svg>
