<svg width="1036" height="990" viewBox="0 0 1036 990" fill="none" xmlns="http://www.w3.org/2000/svg">
<path d="M109.598 451.793C265.615 334.31 498.622 280.21 576.551 209.468C637.769 163.191 731.209 176.566 733.63 253.269C734.163 270.16 731.757 286.869 724.975 302.159C624.196 529.391 683.672 548.368 722.974 756.169C732.986 809.105 623.344 903.079 505.927 817.435C338.938 695.633 284.476 686.111 184.325 628.389C117.235 586.403 14.3962 523.482 109.598 451.793Z" fill="url(#paint0_linear)"/>
<path d="M97.9438 823.289C133.855 579.318 176.352 432.76 155.037 255.704C153.691 182.308 213.714 122.65 282.119 149.291C317.052 162.895 348.271 182.726 360.272 210.882C414.036 337.022 589.276 453.002 740.402 565.749C895.596 681.531 662.549 741.315 531.024 776.058C350.036 823.869 356.443 864.627 258.092 911.736C189.698 940.974 78.9707 952.188 97.9438 823.289Z" fill="url(#paint1_linear)"/>
<defs>
<linearGradient id="paint0_linear" x1="212.747" y1="641.241" x2="673.928" y2="395.368" gradientUnits="userSpaceOnUse">
<stop stop-color="#E75B10"/>
<stop offset="1" stop-color="#FFA879"/>
</linearGradient>
<linearGradient id="paint1_linear" x1="434.229" y1="862.16" x2="372.189" y2="127.015" gradientUnits="userSpaceOnUse">
<stop stop-color="#1400FF"/>
<stop offset="1" stop-color="#A199FF"/>
</linearGradient>
</defs>
</svg>
