<svg width="744" height="693" viewBox="0 0 744 693" fill="none" xmlns="http://www.w3.org/2000/svg">
<path d="M109.598 154.793C265.615 37.3103 498.622 -16.7897 576.551 -87.5321C637.769 -133.809 731.209 -120.434 733.63 -43.731C734.163 -26.8398 731.757 -10.1315 724.975 5.15868C624.196 232.391 683.672 251.368 722.974 459.169C732.986 512.105 623.344 606.079 505.927 520.435C338.938 398.633 284.476 389.111 184.325 331.389C117.235 289.403 14.3962 226.482 109.598 154.793Z" fill="url(#paint0_linear)"/>
<path d="M97.9438 526.289C133.855 282.318 176.352 135.76 155.037 -41.2957C153.691 -114.692 213.714 -174.35 282.119 -147.709C317.052 -134.105 348.271 -114.274 360.272 -86.1179C414.036 40.0222 589.276 156.002 740.402 268.749C895.596 384.531 662.549 444.315 531.024 479.058C350.036 526.869 356.443 567.627 258.092 614.736C189.698 643.974 78.9707 655.188 97.9438 526.289Z" fill="url(#paint1_linear)"/>
<defs>
<linearGradient id="paint0_linear" x1="212.747" y1="344.241" x2="673.928" y2="98.3676" gradientUnits="userSpaceOnUse">
<stop stop-color="#E75B10"/>
<stop offset="1" stop-color="#FFA879"/>
</linearGradient>
<linearGradient id="paint1_linear" x1="434.229" y1="565.16" x2="372.189" y2="-169.985" gradientUnits="userSpaceOnUse">
<stop stop-color="#1400FF"/>
<stop offset="1" stop-color="#A199FF"/>
</linearGradient>
</defs>
</svg>
