<svg width="70" height="64" viewBox="0 0 70 64" fill="none" xmlns="http://www.w3.org/2000/svg">
<path d="M68.8625 0H1.05007C0.763798 0.0224354 0.496471 0.154017 0.301723 0.368342C0.106976 0.582667 -0.00078304 0.86388 6.75887e-05 1.15556V4.97778C-0.00256103 5.36954 0.0715081 5.75793 0.217968 6.12035C0.364427 6.48278 0.580354 6.81201 0.853192 7.08889L27.1032 33.7556V55.9778L42.9625 64V33.7111L69.2125 7.04445C69.7147 6.49415 69.9957 5.77263 70 5.02222V1.15556C70 0.849083 69.8801 0.555164 69.6668 0.338455C69.4535 0.121746 69.1642 0 68.8625 0Z" fill="url(#paint0_linear)"/>
<defs>
<linearGradient id="paint0_linear" x1="-5.51282" y1="80.7619" x2="78.8313" y2="73.2078" gradientUnits="userSpaceOnUse">
<stop stop-color="#1400FF"/>
<stop offset="1" stop-color="#E75B10"/>
</linearGradient>
</defs>
</svg>
