<svg width="142" height="43" viewBox="0 0 142 43" fill="none" xmlns="http://www.w3.org/2000/svg">
<path d="M7.902 34H0.542V1.386H7.902V34ZM21.4939 20.89V34H14.5019V11.138H21.2639V13.76C21.8466 12.748 22.7359 11.966 23.9319 11.414C25.1586 10.8313 26.4006 10.54 27.6579 10.54C30.3873 10.54 32.4573 11.3987 33.8679 13.116C35.2786 14.8027 35.9839 16.98 35.9839 19.648V34H28.9919V20.844C28.9919 19.648 28.6699 18.6973 28.0259 17.992C27.4126 17.256 26.4926 16.888 25.2659 16.888C24.1313 16.888 23.2113 17.2713 22.5059 18.038C21.8313 18.774 21.4939 19.7247 21.4939 20.89ZM50.2313 4.468V11.138H54.6933V17.256H50.2313V25.812C50.2313 27.4067 51.0747 28.204 52.7613 28.204C53.3133 28.204 53.9267 28.1273 54.6013 27.974V33.77C53.7427 34.1993 52.5313 34.414 50.9673 34.414C48.606 34.414 46.7353 33.7547 45.3553 32.436C44.006 31.1173 43.3313 29.3233 43.3313 27.054V17.256H39.2833V11.138H40.4333C41.5987 11.138 42.4727 10.8007 43.0553 10.126C43.6687 9.42066 43.9753 8.516 43.9753 7.412V4.468H50.2313ZM73.9149 11.138V18.038C73.2709 17.8847 72.5349 17.808 71.7069 17.808C70.1429 17.808 68.8549 18.314 67.8429 19.326C66.8615 20.338 66.3709 21.902 66.3709 24.018V34H59.3789V11.138H66.1409V14.22C66.6929 13.0547 67.5362 12.2113 68.6709 11.69C69.8055 11.1687 70.9402 10.908 72.0749 10.908C72.7802 10.908 73.3935 10.9847 73.9149 11.138ZM88.3747 28.25C89.816 28.25 91.0274 27.7593 92.0087 26.778C93.0207 25.7967 93.5267 24.386 93.5267 22.546C93.5267 20.706 93.0207 19.3107 92.0087 18.36C91.0274 17.3787 89.816 16.888 88.3747 16.888C86.964 16.888 85.7527 17.3787 84.7407 18.36C83.7287 19.3413 83.2227 20.7367 83.2227 22.546C83.2227 24.3553 83.7287 25.766 84.7407 26.778C85.7527 27.7593 86.964 28.25 88.3747 28.25ZM88.3747 10.448C91.84 10.448 94.7227 11.5827 97.0227 13.852C99.3534 16.1213 100.519 19.0193 100.519 22.546C100.519 26.0727 99.3534 28.986 97.0227 31.286C94.7227 33.5553 91.84 34.69 88.3747 34.69C84.94 34.69 82.0574 33.54 79.7267 31.24C77.396 28.94 76.2307 26.042 76.2307 22.546C76.2307 19.05 77.396 16.1673 79.7267 13.898C82.0574 11.598 84.94 10.448 88.3747 10.448ZM112.012 34H105.02V0.695998H112.012V34ZM127.152 42.786H119.792L124.99 30.918L115.376 11.138H123.196L128.762 23.374L133.822 11.138H141.228L127.152 42.786Z" fill="#1E167A"/>
</svg>
